inDegrees=yes
name=ik_S54_A10_T01
DataType=double
version=3
OpenSimVersion=4.3-2021-08-27-4bc7ad9
endheader
time	pelvis_tilt	pelvis_list	pelvis_rotation	pelvis_tx	pelvis_ty	pelvis_tz	hip_flexion_r	hip_adduction_r	hip_rotation_r	knee_angle_r	knee_angle_r_beta	ankle_angle_r	subtalar_angle_r	mtp_angle_r	hip_flexion_l	hip_adduction_l	hip_rotation_l	knee_angle_l	knee_angle_l_beta	ankle_angle_l	subtalar_angle_l	mtp_angle_l	lumbar_extension	lumbar_bending	lumbar_rotation	arm_flex_r	arm_add_r	arm_rot_r	elbow_flex_r	pro_sup_r	wrist_flex_r	wrist_dev_r	arm_flex_l	arm_add_l	arm_rot_l	elbow_flex_l	pro_sup_l	wrist_flex_l	wrist_dev_l
0	0	0	0	0	0.9399999999999999	0	0	0	0	0	0	0	0	0	0	0	0	0	0	0	0	0	0	0	0	0	0	0	0	89.99999999963507	0	0	0	0	0	0	89.99999999869995	0	0
0.02	0.5420089179538178	-0.8512770645420541	13.56784324222725	0	0.9399999999999999	0	2.104183793403954	-0.9727731117334183	-0.7066381525991769	3.276106316550714	0.05717884186919357	0	0	0	2.104183793403954	-0.9727731117334183	-0.7066381525991769	3.276106316550714	0.05717884186919357	0	0	0	0.223027912010703	0.08225113045983534	3.579676977941129	14.01881838041188	6.873838843199227	15.08956360115926	10.07707298978886	88.98589254706746	0	0	15.62860364250168	-5.10562312768185	10.38574950039695	12.57301475353623	97.39669586612867	0	0
0.04	0.5321945321274095	-0.8623994114381794	13.58473304384921	0	0.9399999999999999	0	2.216100005255982	-1.024928575648015	-0.7483965157946172	3.370303295148181	0.05882288929114999	0	0	0	2.216100005255982	-1.024928575648015	-0.7483965157946172	3.370303295148181	0.05882288929114999	0	0	0	0.2113270031651723	0.07170048038407176	3.5800906651555	14.01176635906355	6.864504649996548	15.05630125983203	10.04841881292793	89.01645807409783	0	0	15.63240230257506	-5.1010845330808	10.40204674560846	12.57133516543096	97.39775452512214	0	0
0.06	0.5295565334700308	-0.8669057013527204	13.59516393149348	0	0.9399999999999999	0	2.303736140530293	-1.067324131866397	-0.7806644707612078	3.454794659778028	0.0602975417934439	0	0	0	2.303736140530293	-1.067324131866397	-0.7806644707612078	3.454794659778028	0.0602975417934439	0	0	0	0.2080669829756672	0.06644137060901072	3.577711818667003	13.99217391664298	6.864535496786379	15.01769330679202	10.03649905483264	89.06523572316215	0	0	15.63065479154703	-5.096477112907406	10.38951393055053	12.54171415876371	97.41101931127402	0	0
0.08	0.5256195821570796	-0.8709508624789177	13.60497002228746	0	0.9399999999999999	0	2.401408361240757	-1.112455539316179	-0.8170170031850931	3.535578137058407	0.06170747945319654	0	0	0	2.401408361240757	-1.112455539316179	-0.8170170031850931	3.535578137058407	0.06170747945319654	0	0	0	0.2035197339452666	0.06166674939169251	3.575969834932806	13.98460012415836	6.863606453163363	14.99003812926387	10.00482202972727	89.09405266559779	0	0	15.61365469314069	-5.08373801091737	10.35463879518026	12.52691910555629	97.45521931287773	0	0
0.1	0.5210715378742067	-0.8711805096789941	13.61138019150627	0	0.9399999999999999	0	2.512033004493586	-1.167981947239806	-0.8563954753248619	3.665409402909451	0.06397346251432934	0	0	0	2.512033004493586	-1.167981947239806	-0.8563954753248619	3.665409402909451	0.06397346251432934	0	0	0	0.1992965955583275	0.06086810724422614	3.570869881285682	13.97387993230033	6.862227095245653	14.96111931107698	9.972281111177711	89.1618339240233	0	0	15.6133078143265	-5.072676531696554	10.32743676608507	12.48630340230982	97.53015447412527	0	0
0.12	0.5022340818433851	-0.8869553863406566	13.62338815496931	0	0.9399999999999999	0	2.653837957313427	-1.23391112017097	-0.9082517959407744	3.795718363027223	0.06624778291323444	0	0	0	2.653837957313427	-1.23391112017097	-0.9082517959407744	3.795718363027223	0.06624778291323444	0	0	0	0.1776299679813059	0.04753798372126498	3.563831382274468	13.99980760020532	6.87872290721036	14.93329273928756	9.950537333765682	89.18962135833601	0	0	15.64971306791967	-5.072566604184373	10.31273159905292	12.47609966460749	97.62601320846336	0	0
0.14	0.503702582368901	-0.8854948214924743	13.64683420518156	0	0.9399999999999999	0	2.773246036723563	-1.286218995317294	-0.9524510047817512	3.886778028236287	0.06783707388689633	0	0	0	2.773246036723563	-1.286218995317294	-0.9524510047817512	3.886778028236287	0.06783707388689633	0	0	0	0.1797346871581136	0.04607797861094456	3.556917218560923	13.95554269694626	6.872391760021054	14.90170190512518	9.937903933981534	89.23256120802577	0	0	15.65856165846007	-5.066073390520897	10.33814673609665	12.47537786770982	97.62270801659766	0	0
